# xmcd
#
# Track frame offsets: 
#        150
#        8742
#        29229
#        50763
#        67326
#        85597
#        106128
#        128158
#        146316
#        166741
#        188136
#        206853
#        224091
#        248261
#        283197
#
# Disc length: 4295 seconds
#
# Revision: 8
# Processed by: cddbd v1.5.2PL0 Copyright (c) Steve Scherf et al.
# Submitted via: ExactAudioCopy v0.99pb4
#
DISCID=df10c50f
DTITLE=Ludacris / Theater of the Mind
DYEAR=2008
DGENRE=Rap
TTITLE0=Intro
TTITLE1=Undisputed feat. Floyd ''Money'' Mayweather 
TTITLE2=Wish You Would feat. T.I.
TTITLE3=One More Drink feat. T-Pain
TTITLE4=Call Up The Homies feat. The Game, Willy Northpole
TTITLE5=Southern Gangsta feat. Rick Ross, Playaz Circle, Ving Rhames
TTITLE6=Everybody Hates Chris feat. Chris Rock
TTITLE7=What Them Girls Like feat. Chris Brown, Sean Garrett
TTITLE8=Nasty Girl feat. Plies
TTITLE9=Contagious feat. Jamie Foxx
TTITLE10=Last Of A Dying Breed feat. Lil Wayne
TTITLE11=MVP
TTITLE12=I Do It For Hip Hop feat. Nas, Jay-Z
TTITLE13=Do The Right Thang feat. Common, Spike Lee
TTITLE14=Ludacris / Data
EXTD=www.RapMusicGuide.com
EXTT0=
EXTT1=
EXTT2=
EXTT3=
EXTT4=
EXTT5=
EXTT6=
EXTT7=
EXTT8=
EXTT9=
EXTT10=
EXTT11=
EXTT12=
EXTT13=
EXTT14=
PLAYORDER=
.
